<svg xmlns="http://www.w3.org/2000/svg" width="121.601" height="121.601" viewBox="0 0 121.601 121.601">
    <path id="Path_383" data-name="Path 383" d="M60.8,121.6a60.8,60.8,0,1,1,60.8-60.8A60.8,60.8,0,0,1,60.8,121.6ZM43.17,33.447A2.981,2.981,0,0,0,40.1,30.579h-8.09a2.982,2.982,0,0,0-3.07,2.868V58.054a2.983,2.983,0,0,0,3.07,2.868H40.1a2.983,2.983,0,0,0,3.068-2.868ZM90.638,49.285a4.466,4.466,0,0,1-1.2-3.731,5.835,5.835,0,0,0-1.854-5.41,4.6,4.6,0,0,1-1.4-4.224c.493-2.959-1.021-7.151-14.149-6.532l-17.088.407a3.794,3.794,0,0,0-.441.032c-1.408.175-8.769,1.233-8.211,4.5l-.025,19.006-.005,3.877a4.561,4.561,0,0,0,.351,1.754l9.651,18.895a2.034,2.034,0,0,1,.222.922v8.86A4.485,4.485,0,0,0,58.7,91.552a4.826,4.826,0,0,0,5.6-.385c4.323-3.206,4.426-4.932,4.426-4.932s1.955-5.768,1.132-11.017a4.55,4.55,0,0,1,4.5-5.262H84.2a4.363,4.363,0,0,0,.476-.025c1.5-.165,8.332-1.339,5.93-9a4.379,4.379,0,0,1,.74-4.022C92.657,55.262,93.757,52.5,90.638,49.285Z" fill="#ff4040"/>
  </svg>
