<svg xmlns="http://www.w3.org/2000/svg" width="121.601" height="121.601" viewBox="0 0 121.601 121.601">
    <path id="Path_382" data-name="Path 382" d="M70.231,9.43a60.8,60.8,0,1,0,60.8,60.8A60.8,60.8,0,0,0,70.231,9.43ZM52.6,97.584a2.981,2.981,0,0,1-3.068,2.868h-8.09a2.982,2.982,0,0,1-3.07-2.868V72.978a2.983,2.983,0,0,1,3.07-2.868h8.09A2.983,2.983,0,0,1,52.6,72.978Zm47.468-15.838a4.466,4.466,0,0,0-1.2,3.731,5.835,5.835,0,0,1-1.854,5.41,4.6,4.6,0,0,0-1.4,4.224c.493,2.959-1.021,7.151-14.149,6.532l-17.088-.407a3.794,3.794,0,0,1-.441-.032c-1.408-.175-8.769-1.233-8.211-4.5L55.692,77.7l-.005-3.877a4.561,4.561,0,0,1,.351-1.754l9.651-18.895a2.034,2.034,0,0,0,.222-.922v-8.86a4.485,4.485,0,0,1,2.219-3.908,4.826,4.826,0,0,1,5.6.385c4.323,3.206,4.426,4.932,4.426,4.932s1.955,5.768,1.132,11.017a4.55,4.55,0,0,0,4.5,5.262h9.834a4.362,4.362,0,0,1,.476.025c1.5.165,8.332,1.339,5.93,9a4.379,4.379,0,0,0,.74,4.022C102.087,75.769,103.187,78.528,100.067,81.746Z" transform="translate(-9.43 -9.43)" fill="#4080ff"/>
  </svg>
