<svg id="Layer_2" data-name="Layer 2" xmlns="http://www.w3.org/2000/svg" xmlns:xlink="http://www.w3.org/1999/xlink" width="61.8" height="61.8" viewBox="0 0 61.8 61.8">
    <defs>
      <clipPath id="clip-path">
        <path id="Path_352" data-name="Path 352" d="M53.478,51.993A30.814,30.814,0,0,1,30.9,61.8a31.2,31.2,0,0,1-3.835-.237A34.069,34.069,0,0,1,15.9,57.919a31.032,31.032,0,0,1-7.856-6.225l1.283-3.1,13.925-6.212c0,4.535,1.31,10.02,7.439,10.113,7.57.114,8.47-5.475,8.47-10.15l12.79,6.282Z" fill="none"/>
      </clipPath>
    </defs>
    <g id="_ÎÓÈ_1" data-name="—ÎÓÈ 1">
      <circle id="Ellipse_58" data-name="Ellipse 58" cx="30.9" cy="30.9" r="30.9" transform="translate(0 0)" fill="#3dbc93"/>
      <path id="Path_350" data-name="Path 350" d="M53.478,51.993A30.814,30.814,0,0,1,30.9,61.8a31.2,31.2,0,0,1-3.835-.237A34.069,34.069,0,0,1,15.9,57.919a31.032,31.032,0,0,1-7.856-6.225l1.283-3.1,13.925-6.212c0,4.535,1.31,10.02,7.439,10.113,7.57.114,8.47-5.475,8.47-10.15l12.79,6.282Z" fill="#e9573e" fill-rule="evenodd"/>
      <g id="Group_42" data-name="Group 42" clip-path="url(#clip-path)">
        <path id="Path_351" data-name="Path 351" d="M.694,74.664V73.9H66.5v.762Zm9.4-40.977v2.237H12.31V33.687Zm0,3v2.24H12.31v-2.24Zm0,3v1.86H12.31v-1.86Zm0,2.622v2.24H12.31v-2.24Zm0,3V47.55H12.31V45.313Zm0,3v2.24H12.31v-2.24Zm0,3v1.956H12.31V51.315Zm0,2.718v2.24H12.31v-2.24Zm0,3v2.237H12.31V57.036Zm0,3v2.24H12.31v-2.24Zm0,3V64.9H12.31v-1.86Zm0,2.623v2.229H9.342v-2.23H.694V64.9H9.342v-1.86H.694v-.762H9.342v-2.24H.694v-.762H9.342V57.036H.694v-.763H9.342v-2.24H.694v-.762H9.342V51.315H.694v-.762H9.342v-2.24H.694V47.55H9.342V45.313H.694v-.762H9.342v-2.24H.694v-.762H9.342v-1.86H.694v-.763H9.342v-2.24H.694v-.762H9.342V33.687H.694v-.763H66.5v.763H53.58v2.237H66.5v.762H53.58v2.24H66.5v.763H53.58v1.86H66.5v.762H53.58v2.24H66.5v.762H53.58V47.55H66.5v.763H53.58v2.24H66.5v.762H53.58v1.956H66.5v.762H53.58v2.24H66.5v.763H53.58v2.237H66.5v.762H53.58v2.24H66.5v.762H53.58V64.9H66.5v.762H53.58v2.23h-.755v-2.23H50.611v2.23h-.755v-2.23H47.645v2.23h-.754v-2.23H44.676v2.23h-.754v-2.23H42.084v2.23H41.33v-2.23H39.115v2.23h-.754v-2.23H36.15v2.23H35.4v-2.23H33.181v2.23h-.754v-2.23H30.494v2.23H29.74v-2.23H27.525v2.23h-.753v-2.23H24.56v2.23h-.754v-2.23H21.59v2.23h-.754v-2.23H19v2.23h-.754v-2.23H16.03v2.23h-.754v-2.23H13.064v2.23H12.31v-2.23ZM34.722,29.922H66.5v.762H.693v-.762H34.721Zm18.1,3.765H50.612v2.237h2.214Zm-2.969,0H47.646v2.237h2.211Zm-2.965,0H44.677v2.237h2.215Zm-2.969,0H42.085v2.237h1.838Zm-2.592,0H39.116v2.237h2.215Zm-2.969,0H36.15v2.237h2.212V33.687Zm-2.966,0H33.181v2.237H35.4Zm-2.969,0H30.494v2.237h1.933Zm-2.687,0H27.525v2.237h2.216V33.687Zm-2.969,0H24.56v2.237h2.212V33.687Zm-2.965,0H21.59v2.237h2.215V33.687Zm-2.969,0H19v2.237h1.838V33.687Zm-2.592,0H16.03v2.237h2.215V33.687Zm-2.97,0h-2.21v2.237h2.21Zm37.551,3H50.612v2.24h2.214Zm-2.969,0H47.646v2.24h2.211Zm-2.965,0H44.677v2.24h2.215Zm-2.969,0H42.085v2.24h1.838Zm-2.592,0H39.116v2.24h2.215Zm-2.969,0H36.15v2.24h2.212v-2.24Zm-2.966,0H33.181v2.24H35.4Zm-2.969,0H30.494v2.24h1.933Zm-2.687,0H27.525v2.24h2.216v-2.24Zm-2.969,0H24.56v2.24h2.212v-2.24Zm-2.965,0H21.59v2.24h2.215v-2.24Zm-2.969,0H19v2.24h1.838v-2.24Zm-2.592,0H16.03v2.24h2.215v-2.24Zm-2.97,0h-2.21v2.24h2.21Zm37.551,3H50.612v1.86h2.214Zm-2.969,0H47.646v1.86h2.211Zm-2.965,0H44.677v1.86h2.215Zm-2.969,0H42.085v1.86h1.838Zm-2.592,0H39.116v1.86h2.215Zm-2.969,0H36.15v1.86h2.212v-1.86Zm-2.966,0H33.181v1.86H35.4Zm-2.969,0H30.494v1.86h1.933Zm-2.687,0H27.525v1.86h2.216v-1.86Zm-2.969,0H24.56v1.86h2.212v-1.86Zm-2.965,0H21.59v1.86h2.215v-1.86Zm-2.969,0H19v1.86h1.838v-1.86Zm-2.592,0H16.03v1.86h2.215v-1.86Zm-2.97,0h-2.21v1.86h2.21Zm37.551,2.622H50.612v2.24h2.214Zm-2.969,0H47.646v2.24h2.211Zm-2.965,0H44.677v2.24h2.215Zm-2.969,0H42.085v2.24h1.838Zm-2.592,0H39.116v2.24h2.215Zm-2.969,0H36.15v2.24h2.212v-2.24Zm-2.966,0H33.181v2.24H35.4Zm-2.969,0H30.494v2.24h1.933Zm-2.687,0H27.525v2.24h2.216v-2.24Zm-2.969,0H24.56v2.24h2.212v-2.24Zm-2.965,0H21.59v2.24h2.215v-2.24Zm-2.969,0H19v2.24h1.838v-2.24Zm-2.592,0H16.03v2.24h2.215v-2.24Zm-2.97,0h-2.21v2.24h2.21Zm37.551,3H50.612V47.55h2.214Zm-2.969,0H47.646V47.55h2.211Zm-2.965,0H44.677V47.55h2.215Zm-2.969,0H42.085V47.55h1.838Zm-2.592,0H39.116V47.55h2.215Zm-2.969,0H36.15V47.55h2.212V45.313Zm-2.966,0H33.181V47.55H35.4Zm-2.969,0H30.494V47.55h1.933Zm-2.687,0H27.525V47.55h2.216V45.313Zm-2.969,0H24.56V47.55h2.212V45.313Zm-2.965,0H21.59V47.55h2.215V45.313Zm-2.969,0H19V47.55h1.838V45.313Zm-2.592,0H16.03V47.55h2.215V45.313Zm-2.97,0h-2.21V47.55h2.21Zm37.551,3H50.612v2.24h2.214Zm-2.969,0H47.646v2.24h2.211Zm-2.965,0H44.677v2.24h2.215Zm-2.969,0H42.085v2.24h1.838Zm-2.592,0H39.116v2.24h2.215Zm-2.969,0H36.15v2.24h2.212v-2.24Zm-2.966,0H33.181v2.24H35.4Zm-2.969,0H30.494v2.24h1.933Zm-2.687,0H27.525v2.24h2.216v-2.24Zm-2.969,0H24.56v2.24h2.212v-2.24Zm-2.965,0H21.59v2.24h2.215v-2.24Zm-2.969,0H19v2.24h1.838v-2.24Zm-2.592,0H16.03v2.24h2.215v-2.24Zm-2.97,0h-2.21v2.24h2.21Zm37.551,3H50.612v1.956h2.214Zm-2.969,0H47.646v1.956h2.211Zm-2.965,0H44.677v1.956h2.215Zm-2.969,0H42.085v1.956h1.838Zm-2.592,0H39.116v1.956h2.215Zm-2.969,0H36.15v1.956h2.212V51.315Zm-2.966,0H33.181v1.956H35.4Zm-2.969,0H30.494v1.956h1.933Zm-2.687,0H27.525v1.956h2.216V51.315Zm-2.969,0H24.56v1.956h2.212V51.315Zm-2.965,0H21.59v1.956h2.215V51.315Zm-2.969,0H19v1.956h1.838V51.315Zm-2.592,0H16.03v1.956h2.215V51.315Zm-2.97,0h-2.21v1.956h2.21Zm37.551,2.718H50.612v2.24h2.214Zm-2.969,0H47.646v2.24h2.211Zm-2.965,0H44.677v2.24h2.215Zm-2.969,0H42.085v2.24h1.838Zm-2.592,0H39.116v2.24h2.215Zm-2.969,0H36.15v2.24h2.212v-2.24Zm-2.966,0H33.181v2.24H35.4Zm-2.969,0H30.494v2.24h1.933Zm-2.687,0H27.525v2.24h2.216v-2.24Zm-2.969,0H24.56v2.24h2.212v-2.24Zm-2.965,0H21.59v2.24h2.215v-2.24Zm-2.969,0H19v2.24h1.838v-2.24Zm-2.592,0H16.03v2.24h2.215v-2.24Zm-2.97,0h-2.21v2.24h2.21Zm37.551,3H50.612v2.237h2.214Zm-2.969,0H47.646v2.237h2.211Zm-2.965,0H44.677v2.237h2.215Zm-2.969,0H42.085v2.237h1.838Zm-2.592,0H39.116v2.237h2.215Zm-2.969,0H36.15v2.237h2.212V57.036Zm-2.966,0H33.181v2.237H35.4Zm-2.969,0H30.494v2.237h1.933Zm-2.687,0H27.525v2.237h2.216V57.036Zm-2.969,0H24.56v2.237h2.212V57.036Zm-2.965,0H21.59v2.237h2.215V57.036Zm-2.969,0H19v2.237h1.838V57.036Zm-2.592,0H16.03v2.237h2.215V57.036Zm-2.97,0h-2.21v2.237h2.21Zm37.551,3H50.612v2.24h2.214Zm-2.969,0H47.646v2.24h2.211Zm-2.965,0H44.677v2.24h2.215Zm-2.969,0H42.085v2.24h1.838Zm-2.592,0H39.116v2.24h2.215Zm-2.969,0H36.15v2.24h2.212v-2.24Zm-2.966,0H33.181v2.24H35.4Zm-2.969,0H30.494v2.24h1.933Zm-2.687,0H27.525v2.24h2.216v-2.24Zm-2.969,0H24.56v2.24h2.212v-2.24Zm-2.965,0H21.59v2.24h2.215v-2.24Zm-2.969,0H19v2.24h1.838v-2.24Zm-2.592,0H16.03v2.24h2.215v-2.24Zm-2.97,0h-2.21v2.24h2.21Zm37.551,3H50.612V64.9h2.214v-1.86Zm-2.969,0H47.646V64.9h2.211v-1.86Zm-2.965,0H44.677V64.9h2.215v-1.86Zm-2.969,0H42.085V64.9h1.838v-1.86Zm-2.592,0H39.116V64.9h2.215v-1.86Zm-2.969,0H36.15V64.9h2.212v-1.86Zm-2.966,0H33.181V64.9H35.4v-1.86Zm-2.969,0H30.494V64.9h1.933v-1.86Zm-2.687,0H27.525V64.9h2.216v-1.86Zm-2.969,0H24.56V64.9h2.212v-1.86Zm-2.965,0H21.59V64.9h2.215v-1.86Zm-2.969,0H19V64.9h1.838v-1.86Zm-2.592,0H16.03V64.9h2.215v-1.86Zm-2.97,0h-2.21V64.9h2.21v-1.86ZM34.723,67.9H66.5v.762H.693V67.9H34.721Zm0,3H66.5v.763H.693V70.9H34.721Z" fill-rule="evenodd" opacity="0.18"/>
      </g>
      <path id="Path_353" data-name="Path 353" d="M23.255,38.68l15.907.121V51.719L23.255,51.6Z" fill="#f9dca4" fill-rule="evenodd"/>
      <path id="Path_354" data-name="Path 354" d="M39.162,60.682a31.1,31.1,0,0,1-15.907.164V47.586c3.922,4.713,11.848,4.664,15.907.121Z" fill="#677079" fill-rule="evenodd"/>
      <path id="Path_355" data-name="Path 355" d="M39.165,43.46v2.258c0,.161,0,1.46,0,1.467-4.75,3.472-14.539,1.365-15.907-3.124Z" fill-rule="evenodd" opacity="0.11"/>
      <path id="Path_356" data-name="Path 356" d="M31.129,8.432c21.281,0,12.987,35.266,0,35.266-12.266,0-21.281-35.266,0-35.266Z" fill="#ffe8be" fill-rule="evenodd"/>
      <path id="Path_357" data-name="Path 357" d="M18.365,24.046c-3.07,1.339-.46,7.686,1.472,7.658a31.972,31.972,0,0,1-1.472-7.659Zm25.775,0c3.07,1.339.46,7.687-1.471,7.658a31.993,31.993,0,0,0,1.471-7.658Z" fill="#f9dca4" fill-rule="evenodd"/>
      <path id="Path_358" data-name="Path 358" d="M23.258,53.239,20.854,51l-4.8,2.358,7.2-13.65,0,13.528Zm15.9,0L41.561,51l4.8,2.359L39.159,39.71Z" fill="#434955" fill-rule="evenodd"/>
      <path id="Path_359" data-name="Path 359" d="M18.368,23.94c-2.832-4.96-3.688-8.21-2.268-10.65,2.049-3.52,6.571-3.089,6.965-3.918C27.09.893,47.9,7.324,47.035,20.462a14.806,14.806,0,0,0-1.522-2.486s-.075,4.991-1.437,6.957c-1.663-2.874-6.427-5.747-6.427-5.747s1.285,4.31,2.117,5.218c-1.074-.094-13.159-3.479-16.26-13.537-4.007,2.269-5.29,9.366-5.14,13.072Z" fill="#60350a" fill-rule="evenodd"/>
      <path id="Path_360" data-name="Path 360" d="M31.15,46.543c-2.66.022-15.053.136-12.8-22.713,0,0,.835,6.584,2.96,9.456a2.566,2.566,0,0,0,3.822.746c1.16-.835,1.4-2.407,2.834-2.917a2.68,2.68,0,0,1,3.24.782,2.633,2.633,0,0,1,3.213-.782c1.437.51,1.675,2.082,2.834,2.917a2.566,2.566,0,0,0,3.821-.746C43.2,30.413,44.04,23.83,44.04,23.83,46.3,46.68,33.81,46.565,31.15,46.543Z" fill="#60350a" fill-rule="evenodd"/>
      <path id="Path_361" data-name="Path 361" d="M23.94,35.855s5.64,1.7,7.233-3.5l.023-.075.022.075c1.592,5.2,7.234,3.5,7.234,3.5-2.977,2.458-5.176-.206-7.285-.154-2.273.056-4.335,2.542-7.228.154Z" fill="#362008" fill-rule="evenodd"/>
    </g>
  </svg>
