<svg id="Layer_2" data-name="Layer 2" xmlns="http://www.w3.org/2000/svg" width="61.8" height="61.809" viewBox="0 0 61.8 61.809">
    <g id="_ÎÓÈ_1" data-name="—ÎÓÈ 1">
      <circle id="Ellipse_59" data-name="Ellipse 59" cx="30.9" cy="30.9" r="30.9" transform="translate(0 0)" fill="#9f82bb"/>
      <path id="Path_362" data-name="Path 362" d="M52.594,52.918a30.9,30.9,0,0,1-43.666-.292,9.206,9.206,0,0,1,4.036-4.832,19.806,19.806,0,0,1,4.075-2.321c-2.2-7.553,3.778-11.267,6.063-12.335,0,3.487,3.266,1.173,7.318,1.217,3.336.036,9.932,3.4,9.932-1.035,3.67,1.086,7.67,8.079,4.917,12.376a17.613,17.613,0,0,1,3.182,2A10.193,10.193,0,0,1,52.594,52.918Z" fill="#4c4a4f" fill-rule="evenodd"/>
      <path id="Path_363" data-name="Path 363" d="M23.476,38.689l15.689.09v3.438l-.008.053a9.467,9.467,0,0,1-.4,1.853c-1.15,3.788-4.286,5.592-7.962,7.421-2.892-1.5-6.98-4.2-7.305-8.971l-.013-.06v-.2q0-.1,0-.206c0,.035,0,.07,0,.1Z" fill="#302e33" fill-rule="evenodd"/>
      <path id="Path_364" data-name="Path 364" d="M39.161,38.66v3.58a3.812,3.812,0,0,1-.128.83,12.652,12.652,0,0,1-.544,1.812,9.516,9.516,0,0,1-15.014-5.97Z" fill-rule="evenodd" opacity="0.22"/>
      <path id="Path_365" data-name="Path 365" d="M31.129,8.432c21.281,0,12.987,35.266,0,35.266-12.266,0-21.281-35.266,0-35.266ZM19.8,49.172c.03.038,10.419,13.483,22.63-.2-1.475,4.053-7.836,7.27-11.476,7.26-6.949-.02-10.8-5.6-11.154-7.06Z" fill="#302e33" fill-rule="evenodd"/>
      <path id="Path_366" data-name="Path 366" d="M18.365,24.046c-3.07,1.339-.46,7.686,1.472,7.658a31.972,31.972,0,0,1-1.472-7.659Zm25.775,0c3.07,1.339.46,7.687-1.471,7.658a31.993,31.993,0,0,0,1.471-7.658Z" fill="#302e33" fill-rule="evenodd"/>
      <path id="Path_367" data-name="Path 367" d="M31.506,30.646c-.126.127.21.14-.413.122l-1.07-.635c.161-.661.843-.98.983-1.654l-.848-.757c.713-1.03,1.222-.454.671-2.3C30,22.656,32.162,22.13,30,17.7a19.262,19.262,0,0,1-1.48-4.8c-.907-4.26.695-3.813,1.38-4.42a13.506,13.506,0,0,0-3.991.836,10.108,10.108,0,0,0-2.965,1.676c-.027.542.9.353,1.262.069l2.781-1.436c-.6,1.393-.983,1.89-.22,3.505.672,1.423-.223,2.328-1.157,2.923-2.28,1.45-6.34.878-2.488,3.96a4.708,4.708,0,0,1,3.1-2.265,2.45,2.45,0,0,1,2.495,2.637,5.583,5.583,0,0,0,.241,3.058l.477.667a12.544,12.544,0,0,0-1.108.769c.3.294.752.419,1,.705.58.655.28,2.17-1.44,3.094-1.506.808-3.876,1.26-4.342,2.666.327.263.51.294.819.53.352.27.413.46.775.694.417-.378,1.9-2.393,3.406-2.385.152.762-1.481,1.322-2.382,2.884-.26.451-.373.818-.758,1.033-.52-.26-1.044-1.654-2.259-2.2-.621.564-.55.659-.092,1.28.629.853,2.42,3.551,2.882,3.942,1.055-1.192.181-.66,1.993-2.123.755.39,1.3,1.56,2.77,1.728v.151c3.055-.317,2.619-1.14,3.872-1.872,1.627,1.325,1.029,1.073,1.993,2.129a41.062,41.062,0,0,0,2.843-3.874c.154-.219.424-.479.425-.7l-.478-.708c-.03.016-.075.012-.09.05s-.068.04-.087.051l-1.06.9A9.818,9.818,0,0,1,37.1,34.068c-.608-.36-.556-1.066-1.518-2.022-.34-.338-.6-.595-.934-.877-.318-.265-.734-.44-.684-.983,1.485,0,2.963,2.077,3.4,2.418l1.6-1.266c-.433-1.97-5.187-1.962-5.914-4.34-.445-1.46.468-1.614.87-1.9.236-.167.129-.082.26-.228-.275-.279-.663-.507-.973-.767.242-.94.746-.1.645-2.96-.06-1.7-.441-1.675.787-2.686.867-.712,1.343-1.038,2.8-.33.973.471,1.176,1.112,1.918,1.835.7-.272,2.495-1.876,1.12-2.591-.621-.323-2.463-.577-3.642-1.38-1.115-.758-1.655-1.727-.993-3.01a3.275,3.275,0,0,0-.38-3.4,10.416,10.416,0,0,1,1.553.785c.254.137,2.87,1.9,2.509.76a11.9,11.9,0,0,0-2.893-1.762A16.65,16.65,0,0,0,32.75,8.5c.449.3,1.387.554,1.469,1.9a20.005,20.005,0,0,1-1.79,7.45c-2.113,4.35.07,4.37-.827,7.744-.4,1.5.036,1.282.723,2.127-.278.407-.537.468-.828.767.145.712.813,1.013.958,1.644a2.06,2.06,0,0,1-.95.514Zm-9.458,1.08a11.89,11.89,0,0,1-2.191-2.6c-.5-.92-.672-3.187-.006-3.82.865.936,1.2,2.31,2.232,3.078,1.249.93,1.439,1.578-.035,3.342Zm18.373,0c-1.612-2.258-1.154-2.385.01-3.343,1.077-.886,1.355-2.245,2-2.837.286-.262.063-.12.38-.225C44.231,28.206,41.038,31.569,40.421,31.729ZM31,41.2l-.3,1.21c-.967-1.055-.082-1.6-.022-2.41.066-.88-.933-1.9.372-2.294l.244-.047c1.422.2.515,1.43.514,2.218,0,1.122.81.784.113,2.433l-.4-1.2-.338-.086L31,41.2Zm-.751-3.961c.8.02,3.17-.12,3.55.227.76.69-.233,1.9-.254,2.638-.032,1.063.938,1.484.594,2.58-.455,1-1.57.787-2.964.9-.312.02-.668.038-.98.045-3.09-.2-1.153-2.529-1.218-3.525-.017-.688-.515-1.127-.51-1.862C28.47,37.186,29.08,37.238,30.244,37.239ZM28.338,23.556a1.086,1.086,0,0,1-.6.835c-.938.523-2.8-.776-3.392-1.165-2.163-1.415-2.635,1.548-3.324,2.259-1.182-.679-.6-2.093-.843-3.446-.179-1.013-.825-1.888-1-3.19-.353-2.54,1.06-4.828,2.2-6.277l.29.287c-.611.7-3.012,3.378-1.208,4.484,1.531.939-.03,2.508,1.1,3.47.383.326.353.231,1.018.3.968.095,1.074.213,2.38-1.21.45-.49.573-1.035,1.114-1.246.725.393.818,1.65.89,2.5.128,1.471-.237,1.508.775,1.913.575.23.386.125.6.5Zm13.426-9.33c-.583-.79-1.459-.92-.708-1.538,1.243,1.534,2.592,3.644,2.267,6.244-.175,1.405-.825,2.09-1,3.236-.237,1.58.427,2.388-.842,3.346-.6-.586-1.15-3.68-3.391-2.235-4.206,2.713-3.915.1-3.89.061.336-.23.978-.386,1.161-.66.377-.558-.181-3.42,1.071-4.042.533.2,1.536,1.983,2.4,2.4a2.55,2.55,0,0,0,2.085-.241c1.177-1.016-.422-2.551,1.12-3.472,1.18-.7.363-2.229-.274-3.093ZM31.257,32.45l.169-.011c.665-.268.868-.768,1.555-1.143a2.136,2.136,0,0,1,2.036,1.467c-.093.439-2.144,1.515-3.286,2.476-.4.336-.066.246-.61.28a15.245,15.245,0,0,0-1.384-1.069c-1.332-.814-2.876-1.445-1.945-2.347a2.993,2.993,0,0,1,1.735-.858c.553.4,1.11,1.1,1.73,1.205Z" fill="#ed4b39" fill-rule="evenodd"/>
      <path id="Path_368" data-name="Path 368" d="M33.047,11.743q.005.067.005.137a1.8,1.8,0,1,1-3.6,0q0-.07,0-.137h0c.245-2.24,1.24-3.932,1.86-5.9.58,1.966,1.46,3.52,1.74,5.9Zm8.066.652c-.007.039-.015.079-.024.118A1.587,1.587,0,1,1,38,11.769a.657.657,0,0,0,.028-.117A10.77,10.77,0,0,0,40.845,6.98a8.067,8.067,0,0,1,.272,5.416ZM21.326,12.4a1.194,1.194,0,0,0,.024.119,1.587,1.587,0,1,0,3.086-.745.649.649,0,0,1-.029-.117,10.771,10.771,0,0,1-2.813-4.672,8.067,8.067,0,0,0-.273,5.416Z" fill="#e6e6e6" fill-rule="evenodd"/>
    </g>
  </svg>
