<svg id="Layer_2" data-name="Layer 2" xmlns="http://www.w3.org/2000/svg" width="61.8" height="61.803" viewBox="0 0 61.8 61.803">
    <g id="_ÎÓÈ_1" data-name="—ÎÓÈ 1">
      <circle id="Ellipse_32" data-name="Ellipse 32" cx="30.9" cy="30.9" r="30.9" transform="translate(0 0)" fill="#9f82bb"/>
      <path id="Path_238" data-name="Path 238" d="M23.255,38.68l15.907.121V51.719L23.255,51.6Z" fill="#f9dca4" fill-rule="evenodd"/>
      <path id="Path_239" data-name="Path 239" d="M53.478,51.993A30.814,30.814,0,0,1,30.9,61.8a31.547,31.547,0,0,1-9.23-1.4,31.124,31.124,0,0,1-13.626-8.7l1.283-3.1,13.925-6.212c0,4.535,1.519,7.06,7.648,7.153,7.57.113,8.261-2.515,8.261-7.19l12.79,6.282Z" fill="#fff" fill-rule="evenodd"/>
      <path id="Path_240" data-name="Path 240" d="M39.166,38.778v3.58c0,.3,0,.8-.029,1.273-4.155,5.56-14.31,2.547-15.771-5.053Z" fill-rule="evenodd" opacity="0.11"/>
      <path id="Path_241" data-name="Path 241" d="M31.129,8.432c21.281,0,12.988,35.266,0,35.266-12.266,0-21.281-35.266,0-35.266Z" fill="#ffe8be" fill-rule="evenodd"/>
      <path id="Path_242" data-name="Path 242" d="M18.365,24.045c-3.07,1.34-.46,7.687,1.472,7.658a31.978,31.978,0,0,1-1.472-7.658Zm25.775,0c3.07,1.339.46,7.687-1.471,7.658a32,32,0,0,0,1.471-7.658Z" fill="#f9dca4" fill-rule="evenodd"/>
      <path id="Path_243" data-name="Path 243" d="M22.035,35.1a1.879,1.879,0,0,1-.069-.5v-.005a1.422,1.422,0,0,1,1.22-1.361,1.046,1.046,0,0,0,.907,1.745,4.055,4.055,0,0,0,.981-.27c.293-.134.607-.289.943-.481a13.439,13.439,0,0,0,1.426-1.014,3.04,3.04,0,0,1,1.91-.787,2.015,2.015,0,0,1,1.293.466,2.785,2.785,0,0,1,.612.654,2.77,2.77,0,0,1,.612-.654,2.015,2.015,0,0,1,1.292-.466,3.039,3.039,0,0,1,1.911.787A13.421,13.421,0,0,0,36.5,34.224c.336.192.65.347.943.48a4.054,4.054,0,0,0,.981.271,1.046,1.046,0,0,0,.906-1.745,1.422,1.422,0,0,1,1.22,1.36h0V34.6a1.879,1.879,0,0,1-.069.5c-.78,3.631-7.373,2.769-9.223.536-1.85,2.233-8.444,3.1-9.223-.536Z" fill="#8a5c42" fill-rule="evenodd"/>
      <path id="Path_244" data-name="Path 244" d="M26.431,5.74h9.5a8.529,8.529,0,0,1,8.5,8.5v6.59H17.927v-6.59a8.529,8.529,0,0,1,8.5-8.5Z" fill="#464449" fill-rule="evenodd"/>
      <path id="Path_245" data-name="Path 245" d="M12.684,19.828h37a1.369,1.369,0,0,1,0,2.738h-37a1.369,1.369,0,0,1,0-2.738Z" fill="#333" fill-rule="evenodd"/>
      <path id="Path_246" data-name="Path 246" d="M17.927,15.858H44.44v3.97H17.927Z" fill="#677079"/>
      <path id="Path_247" data-name="Path 247" d="M29.42,48.273v13.49a29.1,29.1,0,0,0,3.528-.03V48.273Zm-6.165-6.1,6.164,7.281-8.837,2.918-.023-9.023,2.7-1.176Zm15.937,0-6.164,7.281,8.838,2.918.022-9.023-2.7-1.176Z" fill="#d5e1ed" fill-rule="evenodd"/>
      <path id="Path_248" data-name="Path 248" d="M24.018,45.933l5.09,1.98a2.581,2.581,0,0,1,4.05.04l5.19-2.02v7.2L33.155,51.12a2.581,2.581,0,0,1-4.044.039l-5.093,1.977Z" fill="#464449" fill-rule="evenodd"/>
      <path id="Path_249" data-name="Path 249" d="M15.115,46.012l3.3-1.474V59.176a34.906,34.906,0,0,1-3.3-1.706Zm31.818.151-3.3-1.625V59.065a31.277,31.277,0,0,0,3.3-1.745Z" fill="#8a5c42" fill-rule="evenodd"/>
    </g>
  </svg>
