<svg id="Layer_2" data-name="Layer 2" xmlns="http://www.w3.org/2000/svg" width="61.8" height="61.8" viewBox="0 0 61.8 61.8">
    <g id="_ÎÓÈ_1" data-name="—ÎÓÈ 1">
      <path id="Path_329" data-name="Path 329" d="M31.129,8.432c21.281,0,12.987,35.266,0,35.266-12.266,0-21.281-35.266,0-35.266Z" fill="#ffe8be" fill-rule="evenodd"/>
      <circle id="Ellipse_54" data-name="Ellipse 54" cx="30.9" cy="30.9" r="30.9" transform="translate(0 0)" fill="#58b0e0"/>
      <path id="Path_330" data-name="Path 330" d="M45.487,19.987l-29.173.175s1.048,16.148-2.619,21.21H49.4c-.92-1.35-3.353-1.785-3.909-21.385Z" fill="#60350a" fill-rule="evenodd"/>
      <path id="Path_331" data-name="Path 331" d="M18.135,45.6l7.206-3.187,11.55-.3,7.42,3.9L38.954,57.224l-7.613,4.088-7.875-4.35L18.135,45.6Z" fill="#d5e1ed" fill-rule="evenodd"/>
      <path id="Path_332" data-name="Path 332" d="M24.744,38.68l12.931.084v8.949l-12.931-.085Z" fill="#f9dca4" fill-rule="evenodd"/>
      <path id="Path_333" data-name="Path 333" d="M37.677,38.778v3.58a9.168,9.168,0,0,1-.04,1.226,6.9,6.9,0,0,1-.313,1.327c-4.37,4.165-11.379.78-12.49-6.333Z" fill-rule="evenodd" opacity="0.11"/>
      <path id="Path_334" data-name="Path 334" d="M52.8,52.7a30.9,30.9,0,0,1-44.08-.293l1.221-3.1,9.1-4.122c3.262,5.98,6.81,11.524,12.317,15.455A45.4,45.4,0,0,0,43.2,45.483l8.144,3.853Z" fill="#434955" fill-rule="evenodd"/>
      <path id="Path_335" data-name="Path 335" d="M19.11,24.183c-2.958,1.29-.442,7.41,1.42,7.383a30.842,30.842,0,0,1-1.42-7.383Zm24.4,0c2.96,1.292.443,7.411-1.419,7.384a30.832,30.832,0,0,0,1.419-7.384Z" fill="#f9dca4" fill-rule="evenodd"/>
      <path id="Path_336" data-name="Path 336" d="M31.114,8.666c8.722,0,12.377,6.2,12.6,13.367.307,9.81-5.675,21.43-12.6,21.43-6.56,0-12.706-12.018-12.333-21.928.26-6.953,3.814-12.869,12.332-12.869Z" fill="#ffe8be" fill-rule="evenodd"/>
      <path id="Path_337" data-name="Path 337" d="M33.4,24.983a7.536,7.536,0,0,1,5.223-.993h.005c5.154.63,5.234,2.232,4.733,2.6a2.885,2.885,0,0,0-.785,1.022,6.566,6.566,0,0,1-1.052,2.922,5.175,5.175,0,0,1-3.464,2.312,5.055,5.055,0,0,1-.516.058,4.345,4.345,0,0,1-3.65-1.554,8.33,8.33,0,0,1-1.478-2.53v0s-.8-1.636-2.072-.114a8.446,8.446,0,0,1-1.52,2.64A4.347,4.347,0,0,1,25.172,32.9q-.259-.016-.516-.058a5.176,5.176,0,0,1-3.464-2.312,6.568,6.568,0,0,1-1.052-2.921,2.75,2.75,0,0,0-.77-1.023c-.5-.37-.425-1.973,4.729-2.6h0A7.545,7.545,0,0,1,29.341,25h0l0,0,.215.131a3.93,3.93,0,0,0,3.842-.148h0Zm-4.672.638a6.638,6.638,0,0,0-6.157-.253c-1.511.686-1.972,1.17-1.386,3.163a5.617,5.617,0,0,0,.712,1.532,4.2,4.2,0,0,0,3.326,1.995,3.536,3.536,0,0,0,2.966-1.272,7.6,7.6,0,0,0,1.36-2.37c.679-1.78.862-1.863-.82-2.795Zm10.947-.45a6.727,6.727,0,0,0-5.886.565c-1.538.911-1.258,1.063-.578,2.79a7.476,7.476,0,0,0,1.316,2.26,3.536,3.536,0,0,0,2.967,1.272,4.227,4.227,0,0,0,.43-.048,4.34,4.34,0,0,0,2.9-1.947,5.593,5.593,0,0,0,.684-1.44c.7-2.25.076-2.751-1.828-3.451Z" fill="#464449" fill-rule="evenodd"/>
      <path id="Path_338" data-name="Path 338" d="M17.89,25.608c0-.638.984-.886,1.6,2.943a22.164,22.164,0,0,0,.956-4.813c1.162.225,2.278,2.848,1.927,5.148,3.166-.777,11.3-5.687,13.949-12.324,6.772,3.9,6.735,12.094,6.735,12.094s.358-1.9.558-3.516c.066-.538.293-.733.8-.213C48.073,17.343,42.3,5.75,31.3,5.57c-15.108-.246-17.03,16.114-13.406,20.039Z" fill="#8a5c42" fill-rule="evenodd"/>
      <path id="Path_339" data-name="Path 339" d="M24.765,42.431a14.125,14.125,0,0,0,6.463,5.236L27.02,53.811,21.1,44.031Z" fill="#fff" fill-rule="evenodd"/>
      <path id="Path_340" data-name="Path 340" d="M37.682,42.431a14.126,14.126,0,0,1-6.463,5.236l4.209,6.144,5.953-9.668Z" fill="#fff" fill-rule="evenodd"/>
      <circle id="Ellipse_55" data-name="Ellipse 55" cx="0.839" cy="0.839" r="0.839" transform="translate(30.384 51.723)" fill="#434955"/>
      <circle id="Ellipse_56" data-name="Ellipse 56" cx="0.839" cy="0.839" r="0.839" transform="translate(30.384 55.452)" fill="#434955"/>
      <path id="Path_341" data-name="Path 341" d="M42,24.737c1.784.712,1.719,1.581,1.367,1.841a2.886,2.886,0,0,0-.785,1.022A6.618,6.618,0,0,1,42,29.686ZM20.528,29.216a6.619,6.619,0,0,1-.384-1.615,2.748,2.748,0,0,0-.77-1.023c-.337-.249-.413-1.06,1.154-1.754Z" fill="#464449" fill-rule="evenodd"/>
    </g>
  </svg>
